<?xml version="1.0" encoding="UTF-8" standalone="no"?>
<!-- Created with Inkscape (http://www.inkscape.org/) -->

<svg
   xmlns:dc="http://purl.org/dc/elements/1.1/"
   xmlns:cc="http://creativecommons.org/ns#"
   xmlns:rdf="http://www.w3.org/1999/02/22-rdf-syntax-ns#"
   xmlns:svg="http://www.w3.org/2000/svg"
   xmlns="http://www.w3.org/2000/svg"
   xmlns:sodipodi="http://sodipodi.sourceforge.net/DTD/sodipodi-0.dtd"
   xmlns:inkscape="http://www.inkscape.org/namespaces/inkscape"
   id="svg2"
   version="1.1"
   inkscape:version="0.91 r13725"
   xml:space="preserve"
   width="498.79001"
   height="127.965"
   viewBox="0 0 498.79001 127.965"
   sodipodi:docname="fb10logo_full.svg"><metadata
     id="metadata8"><rdf:RDF><cc:Work
         rdf:about=""><dc:format>image/svg+xml</dc:format><dc:type
           rdf:resource="http://purl.org/dc/dcmitype/StillImage" /><dc:title></dc:title></cc:Work></rdf:RDF></metadata><defs
     id="defs6"><clipPath
       clipPathUnits="userSpaceOnUse"
       id="clipPath16"><path
         d="m 0,102.372 399.032,0 L 399.032,0 0,0 0,102.372 Z"
         id="path18"
         inkscape:connector-curvature="0" /></clipPath></defs><sodipodi:namedview
     pagecolor="#ffffff"
     bordercolor="#666666"
     borderopacity="1"
     objecttolerance="10"
     gridtolerance="10"
     guidetolerance="10"
     inkscape:pageopacity="0"
     inkscape:pageshadow="2"
     inkscape:window-width="771"
     inkscape:window-height="480"
     id="namedview4"
     showgrid="false"
     inkscape:zoom="0.72575632"
     inkscape:cx="498.10107"
     inkscape:cy="63.982498"
     inkscape:window-x="0"
     inkscape:window-y="0"
     inkscape:window-maximized="0"
     inkscape:current-layer="g10" /><g
     id="g10"
     inkscape:groupmode="layer"
     inkscape:label="fb10logo"
     transform="matrix(1.25,0,0,-1.25,0,127.965)"><g
       id="g12"><g
         id="g14"
         clip-path="url(#clipPath16)"><path
           d="m 302.335,19.289 -3.56,0 0,-18.971 3.56,0 0,18.971 z m 12.181,-18.971 -8.218,10.174 7.889,8.797 -4.398,0 -7.415,-8.905 7.597,-10.066 4.545,0 z m -22.713,18.971 -3.559,0 0,-18.971 3.559,0 0,18.971 z m -7.042,0 -15.271,0 0,-2.791 5.62,0 0,-16.18 3.482,0 0,16.18 5.69,0 0.479,2.791 z m -21.396,-11.34 -5.725,0 2.861,8.549 2.864,-8.549 z m 6.491,-7.631 -7.187,19.006 -4.078,0 -7.339,-19.006 3.635,0 1.871,4.945 7.374,0 1.874,-4.945 3.85,0 z m -21.354,0 -1.946,18.971 -4.696,0 -3.414,-10.811 c -0.443,-1.342 -1.028,-4.027 -1.062,-4.17 -0.038,0.143 -0.589,2.863 -0.993,4.205 l -3.375,10.776 -4.663,0 -2.016,-18.971 3.411,0 0.919,11.832 c 0.112,1.484 0.256,4.205 0.256,4.275 0.035,-0.246 0.626,-2.931 1.066,-4.275 l 3.779,-11.832 3.044,0 3.964,11.904 c 0.442,1.451 1.103,3.992 1.138,4.098 0,-0.072 0.076,-2.719 0.183,-4.203 l 0.916,-11.799 3.489,0 z m -30.165,13.459 c 0,-2.756 -2.459,-2.967 -4.734,-2.967 l -1.908,0 0,5.756 2.168,0 c 1.977,0 4.474,-0.281 4.474,-2.789 m 4.88,-13.459 c -0.075,0.107 -1.8,2.367 -2.935,3.887 -1.028,1.343 -2.165,2.718 -2.791,3.494 -0.252,0.322 -0.658,0.672 -0.99,0.884 3.341,0.143 5.471,2.157 5.471,5.301 0,1.766 -0.847,3.25 -2.241,4.237 -1.176,0.814 -2.68,1.168 -5.65,1.168 l -5.87,0 0,-18.971 3.484,0 0,8.125 c 0.659,-0.072 1.176,-0.283 1.724,-0.707 0.994,-0.74 1.982,-1.906 3.673,-4.486 0.658,-1.059 1.319,-1.977 1.868,-2.932 l 4.257,0 z m -24.842,9.185 c 0,-3.355 -0.696,-6.994 -5.067,-6.994 -1.982,0 -3.486,0.637 -4.181,1.834 -0.772,1.309 -1.252,3.182 -1.252,5.69 0,2.224 0.333,3.779 1.031,4.91 0.771,1.236 2.313,1.978 4.112,1.978 4.77,0 5.357,-3.746 5.357,-7.418 m 3.963,0.245 c 0,5.652 -2.973,9.822 -9.248,9.822 -5.651,0 -9.103,-3.709 -9.103,-9.75 0,-5.653 3.231,-9.82 9.321,-9.82 6.389,0 9.03,4.064 9.03,9.748 m -21.1,9.541 -11.745,0 0,-18.971 3.489,0 0,8.584 6.385,0 0,2.719 -6.385,0 0,4.945 7.813,0 0.443,2.723 z m -18.717,-18.971 0,18.971 -3.375,0 0.106,-8.866 c 0.039,-2.228 0.481,-5.797 0.481,-5.797 0,0 -1.429,3.145 -2.569,5.09 l -5.652,9.573 -3.967,0 0,-18.971 3.49,0 -0.146,9.08 c -0.037,2.363 -0.404,6.002 -0.404,6.002 0,0 1.764,-3.707 2.863,-5.615 l 5.538,-9.467 3.635,0 z m -21.945,24.338 -3.594,0 0,-24.338 3.594,0 0,24.338 z"
           style="fill:#231f20;fill-opacity:1;fill-rule:nonzero;stroke:none"
           id="path20"
           inkscape:connector-curvature="0" /><g
           id="g22"
           transform="translate(395.1821,48.394)"><path
             d="m 0,0 c 0,-3.85 -1.396,-6.465 -5.544,-6.465 l -2.711,0 0,13.496 2.307,0 C -1.289,7.031 0,4.028 0,0 M 3.85,0.25 C 3.85,5.866 1.1,8.163 -1.802,9.115 -3.451,9.68 -5.323,9.75 -7.377,9.75 l -4.406,0 0,-18.969 5.727,0 c 1.467,0 2.681,0.073 3.521,0.246 2.421,0.53 6.385,3.11 6.385,9.223 m -22.605,-9.469 0,18.969 -3.376,0 0.108,-8.863 c 0.038,-2.227 0.48,-5.797 0.48,-5.797 0,0 -1.435,3.144 -2.566,5.088 l -5.652,9.572 -3.963,0 0,-18.969 3.483,0 -0.145,9.078 c -0.038,2.368 -0.405,6.007 -0.405,6.007 0,0 1.757,-3.71 2.864,-5.616 l 5.543,-9.469 3.629,0 z m -21.758,6.748 0,12.221 -3.559,0 0,-12.08 c 0,-1.838 -0.183,-2.51 -0.74,-3.217 -0.587,-0.74 -1.757,-1.197 -3.299,-1.197 -1.909,0 -3.338,0.705 -3.856,1.939 -0.215,0.496 -0.291,1.522 -0.291,2.899 l 0,11.656 -3.521,0 0,-12.293 c 0,-2.117 0.145,-2.965 0.771,-4.027 0.955,-1.66 3.079,-2.965 6.859,-2.965 2.718,0 4.551,0.635 5.872,1.801 1.321,1.201 1.764,2.226 1.764,5.263 m -39.932,12.221 -3.559,0 0,-18.969 3.559,0 0,18.969 z m 12.188,-18.969 -8.218,10.176 7.889,8.793 -4.406,0 -7.415,-8.902 7.598,-10.067 4.552,0 z m -22.719,18.969 -3.56,0 0,-18.969 3.56,0 0,18.969 z m -7.042,0 -15.266,0 0,-2.79 5.614,0 0,-16.179 3.482,0 0,16.179 5.69,0 0.48,2.79 z m -21.398,-11.34 -5.72,0 2.857,8.55 2.863,-8.55 z m 6.499,-7.629 -7.194,19.005 -4.071,0 -7.342,-19.005 3.632,0 1.871,4.946 7.377,0 1.871,-4.946 3.856,0 z m -21.36,0 -1.944,18.969 -4.7,0 -3.41,-10.809 c -0.439,-1.343 -1.027,-4.025 -1.065,-4.17 -0.035,0.145 -0.588,2.864 -0.992,4.208 l -3.376,10.771 -4.659,0 -2.02,-18.969 3.417,0 0.917,11.832 c 0.107,1.487 0.253,4.207 0.253,4.275 0.038,-0.246 0.626,-2.931 1.065,-4.275 l 3.78,-11.832 3.044,0 3.966,11.905 c 0.439,1.449 1.103,3.991 1.135,4.096 0,-0.069 0.076,-2.72 0.186,-4.202 l 0.914,-11.799 3.489,0 z m -25.652,0 0,2.897 -9.099,0 0,5.619 6.9,0 0,2.752 -6.934,0 0,4.911 8.33,0 0.475,2.79 -12.333,0 0,-18.969 12.661,0 z m -19.633,0 0,18.969 -3.521,0 0,-7.559 -7.852,0 0,7.559 -3.527,0 0,-18.969 3.527,0 0,8.655 7.852,0 0,-8.655 3.521,0 z m -18.2,18.969 -15.266,0 0,-2.79 5.614,0 0,-16.179 3.486,0 0,16.179 5.692,0 0.474,2.79 z m -21.394,-11.34 -5.724,0 2.86,8.55 2.864,-8.55 z m 6.495,-7.629 -7.194,19.005 -4.071,0 -7.338,-19.005 3.628,0 1.874,4.946 7.377,0 1.868,-4.946 3.856,0 z m -21.543,0 -2.162,24.339 -4.993,0 L -245.762,0 c -0.478,-1.623 -0.771,-3.213 -0.882,-3.814 l -0.07,0 c -0.075,0.531 -0.369,2.013 -0.92,3.992 l -4.257,14.942 -4.956,0 -2.272,-24.339 3.448,0 1.286,16.107 c 0.111,1.275 0.219,3.606 0.256,4.453 l 0.076,0 c 0.146,-0.636 0.582,-2.58 1.132,-4.453 l 4.627,-16.107 3.047,0 5.025,16.886 c 0.405,1.305 0.772,2.932 0.917,3.639 l 0.076,0 c 0.038,-0.707 0.073,-2.651 0.183,-3.957 l 1.321,-16.568 3.521,0 z"
             style="fill:#231f20;fill-opacity:1;fill-rule:nonzero;stroke:none"
             id="path24"
             inkscape:connector-curvature="0" /></g><g
           id="g26"
           transform="translate(373.1968,86.5117)"><path
             d="m 0,0 c 0,-4.275 -1.505,-6.465 -4.583,-6.465 -3.123,0 -4.703,1.839 -4.703,7.206 0,4.275 1.505,6.465 4.589,6.465 C -1.58,7.206 0,5.368 0,0 m 3.635,0.318 c 0,5.756 -3.085,9.395 -8.294,9.395 -4.956,0 -8.256,-3.601 -8.256,-9.324 0,-5.76 3.079,-9.361 8.294,-9.361 4.95,0 8.256,3.601 8.256,9.29 m -20.222,-8.796 0,2.614 -3.23,0 0,15.507 -2.459,0 -6.492,-4.415 0.802,-1.696 c 1.657,0.601 3.161,1.272 4.849,2.331 l 0,-11.727 -3.597,0 0,-2.614 10.127,0 z m -26.493,0 0,18.97 -3.527,0 0,-7.561 -7.851,0 0,7.561 -3.521,0 0,-18.97 3.521,0 0,8.656 7.851,0 0,-8.656 3.527,0 z m -19.305,1.413 -1.688,2.084 c -1.283,-0.742 -2.528,-1.2 -4.077,-1.2 -1.795,0 -3.224,0.598 -4.361,1.835 -1.176,1.273 -1.581,2.652 -1.581,5.3 0,2.011 0.335,3.426 0.992,4.519 0.954,1.661 2.75,2.652 4.805,2.652 1.397,0 2.572,-0.355 3.78,-1.059 l 1.726,2.258 c -1.321,0.953 -3.483,1.521 -5.538,1.521 -5.948,0 -9.652,-4.733 -9.652,-10.104 0,-5.58 3.634,-9.502 9.5,-9.502 2.428,0 4.59,0.563 6.094,1.696 m -21.284,17.557 -3.559,0 0,-18.97 3.559,0 0,18.97 z m -8.148,-18.97 0,2.895 -9.103,0 0,5.616 6.903,0 0,2.759 -6.934,0 0,4.909 8.331,0 0.474,2.791 -12.332,0 0,-18.97 12.661,0 z m -21.758,13.46 c 0,-2.758 -2.459,-2.969 -4.734,-2.969 l -1.91,0 0,5.757 2.166,0 c 1.981,0 4.478,-0.281 4.478,-2.788 m 4.88,-13.46 c -0.076,0.107 -1.798,2.366 -2.939,3.885 -1.024,1.344 -2.162,2.72 -2.785,3.496 -0.259,0.321 -0.66,0.673 -0.989,0.886 3.338,0.139 5.465,2.155 5.465,5.298 0,1.767 -0.844,3.249 -2.241,4.237 -1.17,0.814 -2.674,1.168 -5.651,1.168 l -5.869,0 0,-18.97 3.485,0 0,8.125 c 0.658,-0.071 1.176,-0.283 1.726,-0.707 0.99,-0.741 1.979,-1.907 3.67,-4.486 0.66,-1.058 1.318,-1.977 1.868,-2.932 l 4.26,0 z m -19.596,0 0,2.895 -9.102,0 0,5.616 6.903,0 0,2.759 -6.938,0 0,4.909 8.328,0 0.48,2.791 -12.332,0 0,-18.97 12.661,0 z m -23.192,13.671 c 0,-2.122 -1.761,-2.473 -3.632,-2.473 l -3.268,0 0,4.944 3.05,0 c 1.757,0 3.85,-0.352 3.85,-2.471 m 0.809,-8.09 c 0,-2.508 -2.314,-2.861 -4.368,-2.861 l -3.303,0 0,5.758 3.375,0 c 2.02,0 4.296,-0.496 4.296,-2.897 m 3.849,-0.284 c 0,2.617 -2.127,4.346 -4.658,4.769 2.019,0.496 3.745,2.014 3.745,4.135 0,1.941 -1.394,3.532 -3.417,4.237 -1.024,0.355 -1.978,0.532 -4.366,0.532 l -6.31,0 0,-18.97 6.861,0 c 2.165,0 3.231,0.069 4.586,0.53 2.165,0.742 3.559,2.686 3.559,4.767 m -21.612,-5.297 0,18.97 -3.524,0 0,-7.561 -7.852,0 0,7.561 -3.523,0 0,-18.97 3.523,0 0,8.656 7.852,0 0,-8.656 3.524,0 z m -19.302,1.413 -1.691,2.084 c -1.283,-0.742 -2.529,-1.2 -4.071,-1.2 -1.799,0 -3.23,0.598 -4.368,1.835 -1.176,1.273 -1.574,2.652 -1.574,5.3 0,2.011 0.329,3.426 0.986,4.519 0.958,1.661 2.753,2.652 4.81,2.652 1.391,0 2.567,-0.355 3.781,-1.059 l 1.722,2.258 c -1.318,0.953 -3.486,1.521 -5.54,1.521 -5.946,0 -9.653,-4.733 -9.653,-10.104 0,-5.58 3.635,-9.502 9.504,-9.502 2.424,0 4.589,0.563 6.094,1.696 m -24.293,6.218 -5.724,0 2.86,8.548 2.864,-8.548 z m 6.495,-7.631 -7.194,19.005 -4.071,0 -7.342,-19.005 3.632,0 1.874,4.944 7.374,0 1.871,-4.944 3.856,0 z m -17.504,24.338 -13.18,0 0,-24.338 3.563,0 0,11.409 7.487,0 0,2.755 -7.487,0 0,7.383 9.14,0 0.477,2.791 z"
             style="fill:#231f20;fill-opacity:1;fill-rule:nonzero;stroke:none"
             id="path28"
             inkscape:connector-curvature="0" /></g><g
           id="g30"
           transform="translate(51.0244,97.1982)"><path
             d="m 0,0 c -14.23,-28.589 -28.46,-57.175 -42.69,-85.765 13.786,15.533 27.572,31.062 41.359,46.594 l 1.331,1.5 1.331,-1.5 C 15.118,-54.703 28.904,-70.232 42.69,-85.765 28.46,-57.175 14.23,-28.59 0,0 Z"
             style="fill:none;stroke:#3f78b0;stroke-width:3.55999994;stroke-linecap:butt;stroke-linejoin:miter;stroke-miterlimit:8;stroke-dasharray:none;stroke-opacity:1"
             id="path32"
             inkscape:connector-curvature="0" /></g><g
           id="g34"
           transform="translate(51.0234,60.707)"><path
             d="M 0,0 C 27.197,0 49.244,8.907 49.244,19.895 49.244,30.881 27.197,39.788 0,39.788 -27.196,39.788 -49.244,30.881 -49.244,19.895 -49.244,8.907 -27.196,0 0,0 Z"
             style="fill:none;stroke:#3f78b0;stroke-width:3.55999994;stroke-linecap:butt;stroke-linejoin:miter;stroke-miterlimit:4;stroke-dasharray:none;stroke-opacity:1"
             id="path36"
             inkscape:connector-curvature="0" /></g><g
           id="g38"
           transform="translate(51.0679,28.0308)"><path
             d="M 0,0 C 11.541,22.164 23.081,44.329 34.622,66.493 23.482,55.386 12.343,44.283 1.203,33.176 l -1.257,-1.253 -1.257,1.253 c -11.13,11.097 -22.26,22.192 -33.39,33.286 C -23.134,44.309 -11.568,22.154 0,0 Z"
             style="fill:none;stroke:#3f78b0;stroke-width:3.55999994;stroke-linecap:butt;stroke-linejoin:miter;stroke-miterlimit:3;stroke-dasharray:none;stroke-opacity:1"
             id="path40"
             inkscape:connector-curvature="0" /></g></g></g></g></svg>